<?xml version="1.0" encoding="UTF-8"?>
<svg xmlns="http://www.w3.org/2000/svg" xmlns:xlink="http://www.w3.org/1999/xlink" viewBox="0 0 500 500" width="500px" height="500px">
<g id="surface212879222">
<rect x="0" y="0" width="500" height="500" style="fill:rgb(12.54902%,12.54902%,12.54902%);fill-opacity:1;stroke:none;"/>
<path style=" stroke:none;fill-rule:nonzero;fill:rgb(100%,100%,100%);fill-opacity:1;" d="M 250 80 C 343.890625 80 420 156.109375 420 250 C 420 325.480469 370.789062 389.441406 302.710938 411.628906 C 302.730469 411.570312 302.761719 411.46875 302.761719 411.46875 C 302.761719 411.46875 291.289062 406.089844 291.53125 396.488281 C 291.800781 385.929688 291.53125 361.28125 291.53125 352.230469 C 291.53125 336.699219 281.699219 325.691406 281.699219 325.691406 C 281.699219 325.691406 358.789062 326.558594 358.789062 244.300781 C 358.789062 212.558594 342.199219 196.050781 342.199219 196.050781 C 342.199219 196.050781 350.910156 162.171875 339.179688 147.800781 C 326.03125 146.378906 302.488281 160.371094 292.429688 166.898438 C 292.429688 166.898438 276.5 160.371094 249.988281 160.371094 C 223.488281 160.371094 207.550781 166.898438 207.550781 166.898438 C 197.5 160.371094 173.949219 146.378906 160.800781 147.800781 C 149.070312 162.171875 157.78125 196.050781 157.78125 196.050781 C 157.78125 196.050781 141.191406 212.570312 141.191406 244.300781 C 141.191406 326.558594 218.28125 325.691406 218.28125 325.691406 C 218.28125 325.691406 210.511719 334.46875 208.820312 347.371094 C 203.441406 349.199219 195.519531 351.449219 189.128906 351.449219 C 172.398438 351.449219 159.671875 335.191406 155.011719 327.660156 C 150.410156 320.238281 140.980469 314.011719 132.199219 314.011719 C 126.410156 314.011719 123.589844 316.898438 123.589844 320.210938 C 123.589844 323.519531 131.699219 325.828125 137.058594 331.960938 C 148.351562 344.898438 148.148438 373.980469 188.378906 373.980469 C 192.75 373.980469 201.671875 372.910156 208.378906 372 C 208.339844 381.160156 208.328125 390.820312 208.46875 396.46875 C 208.710938 406.070312 197.238281 411.449219 197.238281 411.449219 C 197.238281 411.449219 197.269531 411.550781 197.289062 411.609375 C 129.210938 389.441406 80 325.480469 80 250 C 80 156.109375 156.109375 80 250 80 Z M 250 80 "/>
</g>
</svg>
